<svg class="canvas" viewBox="0 0 1920 1080" preserveAspectRatio="xMaxYMid slice" xmlns="http://www.w3.org/2000/svg" version="1.1" xmlns:xlink="http://www.w3.org/1999/xlink" xmlns:svgjs="http://svgjs.dev/svgjs"><rect width="1920" height="1080" fill="hsl(232, 65%, 15%)"></rect><defs><linearGradient x1="0.5" y1="0" x2="0" y2="1" id="SvgjsLinearGradient1238"><stop stop-color="#42288a" offset="0"></stop><stop stop-color="#140610" offset="0.1"></stop></linearGradient><linearGradient x1="0.5" y1="0" x2="0" y2="1" id="SvgjsLinearGradient1239"><stop stop-color="#2f288a" offset="0"></stop><stop stop-color="#140613" offset="0.22857142857142856"></stop></linearGradient><linearGradient x1="0.5" y1="0" x2="0" y2="1" id="SvgjsLinearGradient1240"><stop stop-color="#2f288a" offset="0"></stop><stop stop-color="#140613" offset="0.3571428571428571"></stop></linearGradient><linearGradient x1="0.5" y1="0" x2="0" y2="1" id="SvgjsLinearGradient1241"><stop stop-color="#c3c0f2" offset="0"></stop><stop stop-color="#d742cd" offset="0.48571428571428565"></stop></linearGradient><linearGradient x1="0.5" y1="0" x2="0" y2="1" id="SvgjsLinearGradient1242"><stop stop-color="#c0d0f2" offset="0"></stop><stop stop-color="#a542d7" offset="0.6142857142857142"></stop></linearGradient><linearGradient x1="0.5" y1="0" x2="0" y2="1" id="SvgjsLinearGradient1243"><stop stop-color="#c0d0f2" offset="0"></stop><stop stop-color="#a542d7" offset="0.7428571428571429"></stop></linearGradient><linearGradient x1="0.5" y1="0" x2="0" y2="1" id="SvgjsLinearGradient1244"><stop stop-color="#d7c0f2" offset="0"></stop><stop stop-color="#d74291" offset="0.8714285714285713"></stop></linearGradient></defs><path d="M0,-574.786832935748C52.97930927487412,-552.9802197327576,205.49361229329094,-482.14805252712256,317.8758556492447,-443.9471537178058C430.2580990051985,-405.74625490848905,563.3800921515293,-371.2051836857835,674.2934601357227,-345.58144007984737C785.2068281199162,-319.95769647391126,877.6908951741599,-312.60553750420314,983.3560635544052,-290.2046920821891C1089.0212319346504,-267.8038466601751,1198.4757628475297,-240.41798093051946,1308.2844704171944,-211.17636754776336C1418.093177986859,-181.93475416500726,1540.255720708592,-144.15326755432181,1642.2083089723928,-114.75501178565258C1744.1608972361937,-85.35675601698335,1873.7013848287322,-48.1148627440654,1920,-34.78683293574796L 1920 1080 L 0 1080 Z" fill="url(#SvgjsLinearGradient1238)"></path><path d="M0,-379.43273075940033C44.26008997812418,-361.39845736294285,168.33990992379046,-289.40479132136335,265.5605398687451,-271.2270903806553C362.7811698136997,-253.04938943994722,494.29243330699535,-286.67283133608277,583.3237796697276,-270.36652511515194C672.3551260324599,-254.0602188942211,719.6393474344312,-200.88292603588738,799.7486180451386,-173.3892530550702C879.8578886558461,-145.89558007425305,963.0316902057018,-141.57064623967102,1063.979403333972,-105.40448723024898C1164.927116462242,-69.23832822082693,1305.4403880565076,5.834748759010793,1405.43489681476,43.60770100146208C1505.4294055730122,81.38065324391337,1578.1856053526121,99.35901247031676,1663.9464558834854,121.23322622445875C1749.7073064143588,143.10743997860072,1877.3244093139142,165.91635730933814,1920,174.852983526314L 1920 1080 L 0 1080 Z" fill="url(#SvgjsLinearGradient1239)"></path><path d="M0,-260.1019174046049C59.34761027298419,-243.4841378099365,242.1422410032876,-190.17354034273362,356.08566163790516,-160.39523983659456C470.0290822725227,-130.6169393304555,581.6179016813112,-102.86236026701565,683.6605238077053,-81.43211436777051C785.7031459340994,-60.00186846852537,875.5232379345322,-73.76306690450983,968.3413943962698,-31.813764441123723C1061.1595508580076,10.135538022262388,1144.2745221346472,133.73212705990238,1240.5694625781314,170.26370041254614C1336.8644030216155,206.7952737651899,1432.8726141535294,164.3413738823592,1546.1110370571741,187.3756756747388C1659.3494599608189,210.4099774671184,1857.6851728428624,288.2872052514762,1920,308.46951116682374L 1920 1080 L 0 1080 Z" fill="url(#SvgjsLinearGradient1240)"></path><path d="M0,-164.2458868635112C38.315309464641054,-146.29904850780744,144.22091350503683,-80.55119602015041,229.89185678784634,-56.56485672928861C315.56280007065584,-32.5785174384268,408.7056238209967,-51.811651746702,514.0256596968569,-20.327851118340387C619.3456955727171,11.15594951002122,765.4172919522092,95.96521759795831,861.8120720430073,132.33794704088103C958.2068521338055,168.71067648380375,1003.8484300416321,173.15837673914947,1092.3943402416458,197.90852553919592C1180.9402504416594,222.65867433924237,1307.4482892288004,259.2516077051656,1393.087533243089,280.8388398411597C1478.7267772573775,302.4260719771538,1518.4110598678917,304.4698489964152,1606.2298043273768,327.4319183551605C1694.0485487868618,350.39398771390586,1867.7049673878962,403.41469972055313,1920,418.6112559936317L 1920 1080 L 0 1080 Z" fill="url(#SvgjsLinearGradient1241)"></path><path d="M0,-39.234273978315C46.80087975092507,-29.43056676257612,194.04467834889357,-7.497890110741142,280.8052785055504,19.58796931611829C367.56587866220724,46.67382874297772,443.08627463072025,96.50526474872396,520.5636009399411,123.2808825828416C598.040927249162,150.05650041695924,666.1140426090469,164.93517722991325,745.6692363608757,180.24167632082413C825.2244301127046,195.548175411735,915.1128029505556,190.21286212503367,997.8947634509138,215.11987712830683C1080.676723951272,240.02689213157998,1172.7673447145644,297.8951529226825,1242.3609993630248,329.6837663404631C1311.9546540114852,361.4723797582437,1338.9534786815684,389.0735744589066,1415.4566913416759,405.8515576349905C1491.9599040017833,422.62954081107443,1617.289723880616,405.008827808708,1701.38027532367,430.35166539696667C1785.470826766724,455.6945029852253,1883.5633792206118,536.6490968699463,1920,557.9085831645423L 1920 1080 L 0 1080 Z" fill="url(#SvgjsLinearGradient1242)"></path><path d="M0,113.76920649041199C69.59539841310328,139.91083743911915,284.8006629891627,234.2615424426528,417.5723904786197,270.6189921826549C550.3441179680767,306.976441922657,668.8653853550863,295.45347031159474,796.6303649367422,331.91390493042456C924.3953445183981,368.3743395492544,1061.9052359057116,443.7756690957755,1184.1622679685547,489.3815998956337C1306.4193000313978,534.9875306954918,1407.5329353085604,566.2467933923488,1530.1725573138012,605.5494897295737C1652.8121793190421,644.8521860667986,1855.0287595523002,705.2563965540818,1920,725.1977779189834L 1920 1080 L 0 1080 Z" fill="url(#SvgjsLinearGradient1243)"></path><path d="M0,256.2985541413093C50.780843676661526,274.30254819670154,208.00488630299964,331.4497737289145,304.68506205996914,364.32251847366285C401.36523781693865,397.1952632184112,486.81415246610015,432.6487774913373,580.0810545418171,453.5350226097993C673.3479566175341,474.4212677282613,777.6228719360499,459.1225501449975,864.286474514271,489.63998918443485C950.9500770924922,520.1574282238722,1020.3301154305766,599.1896775513176,1100.0626700111438,636.6396568464233C1179.795224591711,674.0896361415291,1250.8147984824648,684.5403956194534,1342.6818019976743,714.3398649550697C1434.5488055128837,744.1393342906861,1555.0449914353462,787.4909770433673,1651.2646911024005,815.4364728601215C1747.4843907694549,843.3819686768758,1875.2107818504,870.9167786896828,1920,882.0128398555951L 1920 1080 L 0 1080 Z" fill="url(#SvgjsLinearGradient1244)"></path></svg>